PathFileType	4	(x/y/z)	S05_SL_Cal_T01
DataRate	CameraRate	NumFrames	NumMarkers	Units	OrigDataRate	OrigDataStartFrame	OrigNumFrames
240	240	4	50	mm	240	901	2400
Frame#	Time	Sternum			R.Acromium			L.Acromium			Top.Head			R.ASIS			L.ASIS			R.PSIS			L.PSIS			R.Great.Tro			L.Great.Tro			R.Iliac.Crest			L.Iliac.Crest			V.Sacral			R.Thigh.Upper.Post			R.Thigh.Lower.Ant			R.Thigh.Lower.Post			R.Thigh.Upper.Ant			R.Knee.Lat			R.Knee.Med			R.Shank.Upper.Post			R.Shank.Lower.Ant			R.Shank.Lower.Post			R.Shank.Upper.Ant			R.Ankle.Lat			R.Ankle.Med			R.Heel.Upper			R.Heel.Med			R.Heel.Lat			R.Toe.Lat			R.Toe.Med			R.Toe.Tip			L.Thigh.Upper.Post			L.Thigh.Lower.Ant			L.Thigh.Lower.Post			L.Thigh.Upper.Ant			L.Knee.Lat			L.Shank.Upper.Post			L.Shank.Lower.Ant			L.Shank.Lower.Post			L.Shank.Upper.Ant			L.Ankle.Lat			L.Ankle.Med			L.Heel.Upper			L.Heel.Med			L.Heel.Lat			L.Toe.Lat			L.Toe.Med			L.Toe.Tip			Cervical.Spine			Back			
		X1	Y1	Z1	X2	Y2	Z2	X3	Y3	Z3	X4	Y4	Z4	X5	Y5	Z5	X6	Y6	Z6	X7	Y7	Z7	X8	Y8	Z8	X9	Y9	Z9	X10	Y10	Z10	X11	Y11	Z11	X12	Y12	Z12	X13	Y13	Z13	X14	Y14	Z14	X15	Y15	Z15	X16	Y16	Z16	X17	Y17	Z17	X18	Y18	Z18	X19	Y19	Z19	X20	Y20	Z20	X21	Y21	Z21	X22	Y22	Z22	X23	Y23	Z23	X24	Y24	Z24	X25	Y25	Z25	X26	Y26	Z26	X27	Y27	Z27	X28	Y28	Z28	X29	Y29	Z29	X30	Y30	Z30	X31	Y31	Z31	X32	Y32	Z32	X33	Y33	Z33	X34	Y34	Z34	X35	Y35	Z35	X36	Y36	Z36	X37	Y37	Z37	X38	Y38	Z38	X39	Y39	Z39	X40	Y40	Z40	X41	Y41	Z41	X42	Y42	Z42	X43	Y43	Z43	X44	Y44	Z44	X45	Y45	Z45	X46	Y46	Z46	X47	Y47	Z47	X48	Y48	Z48	X49	Y49	Z49	X50	Y50	Z50	

901	3.75	538.17	1285.4	336.77	422.83	1532.7	495.05	411.82	1544.7	155.82	408.09	1850.9	334.15	486.8	1016.9	465.1	500.65	1024	214.1	290.78	1050.3	370.21	297.12	1052.8	279.07	395.93	942.03	521.19	405.02	950.63	136.93	400.21	1106.7	499.63	413.43	1106.1	165.49	278.8	1014.6	335.24	425.13	719.13	528.79	467.91	638.41	481.81	401.49	632.87	512.26	488.02	724.63	498.68	385.2	537.71	494.04	380.21	513.26	364.71	297.51	302.94	510.87	359.88	236.64	512.25	294.79	226.46	499.96	362.04	314.54	520.11	347.09	125.77	504.69	348.89	140.21	417.12	272.57	75.192	456.62	280.7	41.766	429.64	283.21	48.849	494.57	452.09	37.337	534.33	478.73	40.435	412.36	546.07	57.041	452.72	385.07	716.11	125.4	455.37	633.35	146.74	384.54	620.83	137.2	462.99	723.8	134.84	386.28	528.45	139.35	315.02	333.47	120.96	380.44	273.22	123.38	310.61	260.77	134.16	380.67	344.14	116.42	340.16	117	133.17	368.32	128.3	221.34	278.45	68.693	178.45	289.09	44.017	210.93	283.48	41.503	149.81	468.18	39.544	103.83	486.08	50.406	224.01	553.04	59.02	171.73	363.53	1580.2	332.59	275.97	1295.6	330.72
902	3.7542	538.19	1285.4	336.77	422.86	1532.7	495.07	411.81	1544.7	155.83	408.13	1850.9	334.16	486.82	1016.9	465.1	500.67	1024	214.1	290.8	1050.3	370.21	297.13	1052.8	279.07	395.95	942.03	521.2	405.03	950.63	136.93	400.23	1106.7	499.63	413.45	1106.1	165.49	278.82	1014.6	335.24	425.14	719.13	528.79	467.91	638.41	481.81	401.49	632.87	512.26	488.03	724.63	498.67	385.2	537.72	494.04	380.2	513.26	364.71	297.51	302.94	510.87	359.88	236.65	512.25	294.79	226.46	499.96	362.04	314.54	520.12	347.08	125.77	504.69	348.89	140.22	417.12	272.57	75.193	456.62	280.7	41.767	429.64	283.21	48.85	494.57	452.09	37.336	534.33	478.73	40.433	412.36	546.07	57.039	452.72	385.07	716.11	125.4	455.36	633.35	146.74	384.54	620.83	137.2	462.99	723.8	134.84	386.28	528.45	139.35	315.01	333.47	120.96	380.44	273.22	123.39	310.61	260.77	134.16	380.67	344.14	116.42	340.16	117	133.17	368.32	128.3	221.34	278.45	68.691	178.45	289.09	44.016	210.93	283.48	41.503	149.81	468.18	39.544	103.83	486.08	50.406	224.01	553.04	59.02	171.73	363.55	1580.2	332.58	275.99	1295.6	330.72
903	3.7583	538.21	1285.4	336.77	422.88	1532.7	495.08	411.81	1544.7	155.84	408.17	1850.9	334.16	486.84	1016.9	465.1	500.69	1024	214.1	290.82	1050.3	370.21	297.15	1052.8	279.07	395.97	942.03	521.2	405.04	950.63	136.93	400.25	1106.7	499.63	413.47	1106.1	165.49	278.83	1014.6	335.24	425.14	719.13	528.79	467.91	638.41	481.8	401.49	632.87	512.26	488.04	724.63	498.67	385.2	537.72	494.04	380.2	513.26	364.71	297.51	302.94	510.87	359.89	236.65	512.26	294.79	226.46	499.96	362.04	314.54	520.12	347.08	125.77	504.69	348.9	140.22	417.12	272.57	75.195	456.62	280.7	41.768	429.64	283.22	48.851	494.57	452.09	37.336	534.33	478.73	40.432	412.36	546.07	57.038	452.72	385.07	716.11	125.4	455.36	633.35	146.74	384.53	620.83	137.2	462.99	723.79	134.84	386.27	528.45	139.35	315.01	333.47	120.97	380.43	273.21	123.39	310.6	260.77	134.16	380.66	344.14	116.42	340.16	117	133.17	368.32	128.3	221.34	278.45	68.69	178.45	289.09	44.015	210.93	283.48	41.503	149.81	468.18	39.545	103.83	486.08	50.406	224.01	553.04	59.021	171.73	363.57	1580.2	332.57	276.01	1295.6	330.73
904	3.7625	538.23	1285.4	336.77	422.9	1532.7	495.1	411.81	1544.7	155.85	408.2	1850.9	334.17	486.86	1016.9	465.1	500.71	1024	214.1	290.84	1050.3	370.22	297.17	1052.8	279.07	395.99	942.04	521.2	405.04	950.63	136.93	400.28	1106.7	499.64	413.48	1106.1	165.49	278.85	1014.6	335.24	425.15	719.13	528.79	467.91	638.41	481.8	401.5	632.87	512.26	488.04	724.63	498.67	385.2	537.73	494.04	380.19	513.26	364.71	297.51	302.94	510.88	359.89	236.65	512.26	294.8	226.46	499.96	362.04	314.55	520.12	347.08	125.76	504.69	348.9	140.22	417.12	272.57	75.196	456.62	280.71	41.769	429.64	283.22	48.852	494.57	452.09	37.335	534.33	478.73	40.431	412.36	546.08	57.037	452.72	385.07	716.11	125.4	455.36	633.34	146.73	384.53	620.83	137.2	462.99	723.79	134.84	386.27	528.45	139.35	315	333.47	120.97	380.43	273.21	123.39	310.6	260.77	134.16	380.66	344.14	116.42	340.16	117	133.17	368.32	128.3	221.35	278.45	68.689	178.45	289.09	44.014	210.93	283.48	41.503	149.81	468.18	39.545	103.83	486.07	50.407	224.01	553.04	59.022	171.73	363.59	1580.2	332.57	276.03	1295.6	330.73
